<svg width="20" height="20" viewBox="0 0 20 20" fill="none" xmlns="http://www.w3.org/2000/svg">
<path d="M6.91629 17.2584L0.658379 11.0005C0.335879 10.678 0.335879 10.1555 0.658379 9.83296L2.33296 8.15838C2.65546 7.83588 3.17796 7.83588 3.50046 8.15838L9.75837 14.4163C10.0809 14.7388 10.0809 15.2613 9.75837 15.5838L8.08379 17.2584C7.76129 17.5805 7.23879 17.5805 6.91629 17.2584Z" fill="url(#paint0_linear_33_118)"/>
<path d="M5.24168 14.4163L16.4996 3.15838C16.8221 2.83588 17.3446 2.83588 17.6671 3.15838L19.3417 4.83296C19.6642 5.15546 19.6642 5.67796 19.3417 6.00046L8.08377 17.2584C7.76127 17.5809 7.23877 17.5809 6.91627 17.2584L5.24168 15.5838C4.9196 15.2613 4.9196 14.7388 5.24168 14.4163Z" fill="url(#paint1_linear_33_118)"/>
<defs>
<linearGradient id="paint0_linear_33_118" x1="8.85046" y1="16.3505" x2="1.47546" y2="8.97546" gradientUnits="userSpaceOnUse">
<stop stop-color="#586F00"/>
<stop offset="1" stop-color="#CCFF00"/>
</linearGradient>
<linearGradient id="paint1_linear_33_118" x1="18.5043" y1="3.99583" x2="6.07919" y2="16.4214" gradientUnits="userSpaceOnUse">
<stop stop-color="#E7FF8A"/>
<stop offset="0.0001" stop-color="#CCFF00"/>
<stop offset="1" stop-color="#E7FF8A"/>
</linearGradient>
</defs>
</svg>
