<svg width="60" height="60" viewBox="0 0 60 60" fill="none" xmlns="http://www.w3.org/2000/svg">
<g clip-path="url(#clip0_31_85)">
<path d="M2.45148 19.5408C4.07559 19.5408 4.9336 18.622 4.9336 17.0294V9.80119C4.9336 6.61589 6.619 4.99261 9.68336 4.99261H17.099C18.7232 4.99261 19.6118 4.10441 19.6118 2.51175C19.6118 0.919105 18.7232 0.0615234 17.099 0.0615234H9.62206C3.21757 0.0615234 0 3.21619 0 9.52554V17.0294C0 18.622 0.888661 19.5408 2.45148 19.5408ZM57.5179 19.5408C59.1419 19.5408 60 18.622 60 17.0294V9.52554C60 3.21619 56.7824 0.0615234 50.378 0.0615234H42.8702C41.2768 0.0615234 40.3882 0.919105 40.3882 2.51175C40.3882 4.10441 41.2768 4.99261 42.8702 4.99261H50.286C53.3197 4.99261 55.0664 6.61589 55.0664 9.80119V17.0294C55.0664 18.622 55.9551 19.5408 57.5179 19.5408ZM9.62206 60.0003H17.099C18.7232 60.0003 19.6118 59.1121 19.6118 57.55C19.6118 55.9574 18.7232 55.0692 17.099 55.0692H9.68336C6.619 55.0692 4.9336 53.4459 4.9336 50.2607V43.0324C4.9336 41.4091 4.04493 40.5209 2.45148 40.5209C0.858018 40.5209 0 41.4091 0 43.0324V50.5056C0 56.8456 3.21757 60.0003 9.62206 60.0003ZM42.8702 60.0003H50.378C56.7824 60.0003 60 56.815 60 50.5056V43.0324C60 41.4091 59.1113 40.5209 57.5179 40.5209C55.9243 40.5209 55.0664 41.4091 55.0664 43.0324V50.2607C55.0664 53.4459 53.3197 55.0692 50.286 55.0692H42.8702C41.2768 55.0692 40.3882 55.9574 40.3882 57.55C40.3882 59.1121 41.2768 60.0003 42.8702 60.0003ZM13.7589 32.619H26.5985C27.2115 32.619 27.5791 33.0171 27.5791 33.6297V46.279C27.5791 49.0355 30.4903 49.3111 31.4095 47.3204L45.0153 18.3463C46.1184 15.988 44.0961 13.936 41.7058 15.0692L12.7477 28.8211C10.7559 29.7399 11.0929 32.619 13.7589 32.619Z" fill="#CCFF00"/>
</g>
<defs>
<clipPath id="clip0_31_85">
<rect width="60" height="60" fill="white"/>
</clipPath>
</defs>
</svg>
