<?xml version="1.0" encoding="UTF-8"?>
<svg id="Layer_2" data-name="Layer 2" xmlns="http://www.w3.org/2000/svg" viewBox="0 0 463.35 146.81">
  <defs>
    <style>
      .cls-1 {
        fill: #fff;
      }

      .cls-1, .cls-2 {
        stroke-width: 0px;
      }

      .cls-2 {
        fill: #cf0;
      }
    </style>
  </defs>
  <g id="Camada_1" data-name="Camada 1">
    <g id="Dark_Black" data-name="Dark Black">
      <g id="DARK">
        <path class="cls-1" d="M111.94,73.4c0,62.76-49.36,73.4-85.88,73.4H2.02c-1.1,0-2.02-.92-2.02-1.65v-54.11c0-1.94,1.57-3.51,3.51-3.51h21.05c1.94,0,3.51,1.57,3.51,3.51v25.36c0,1.93,1.55,3.49,3.48,3.52,18.81.25,52.13-3.97,52.13-46.52,0-33.58-21.96-47.25-52.11-46.73-1.93.03-3.49,1.59-3.49,3.52v25.57c0,1.94-1.57,3.51-3.51,3.51H3.51C1.57,59.27,0,57.7,0,55.76V1.65c0-.73.92-1.65,2.02-1.65h24.04c35.78,0,85.88,8.26,85.88,73.4Z"/>
        <path class="cls-2" d="M225.11,146.81h-25.32c-.55,0-1.47-.37-1.65-1.1l-.04-.11c-9.62-27.16-48.07-27.09-57.58.11h0c-.18.73-1.1,1.1-1.83,1.1h-25.14c-1.65,0-2.39-1.1-1.84-2.2L167.3,1.1c.55-1.47,3.12-1.47,3.67,0l55.79,143.5c.55,1.1-.37,2.2-1.65,2.2Z"/>
        <path class="cls-1" d="M334.24,146.81h-26.24c-.55,0-1.65-.55-1.84-1.1l-24.22-52.58c-1.57-3.41-4.98-5.6-8.74-5.6h0c-5.31,0-9.62,4.31-9.62,9.62v48c0,.73-.92,1.65-2.02,1.65h-24.04c-.92,0-1.84-.92-1.84-1.65v-74.98c0-5.31,4.31-9.62,9.62-9.62h39.74c6.06,0,21.66-.73,21.66-16.88s-17.25-17.07-21.66-17.07h-39.74c-5.31,0-9.62-4.31-9.62-9.62V1.65c0-.73.92-1.65,1.84-1.65h47.53c8.26,0,49.55.37,49.55,43.68,0,18.28-8.19,29.46-19.19,35.85-4.25,2.47-5.95,7.76-3.92,12.23,8.05,17.73,16.49,35.13,24.39,52.67.55,1.28-.18,2.39-1.65,2.39Z"/>
        <path class="cls-1" d="M461.23,146.81h-31.56c-.37,0-1.47-.37-1.65-.55l-42.48-52.51c-.17-.21-.5-.22-.68-.02l-38.26,43.07c-.28.31-.79.12-.79-.3V1.65c0-.73.92-1.65,2.02-1.65h24.22c1.1,0,1.84.92,1.84,1.65v65.53l.8.28L429.11.55c.18-.18,1.28-.55,1.65-.55h29.91c2.02,0,2.94,1.47,1.65,2.75l-58.12,71.65v.57s58.67,69.08,58.67,69.08c1.1,1.47.18,2.75-1.65,2.75Z"/>
      </g>
    </g>
  </g>
</svg>