<svg width="126" height="40" viewBox="0 0 126 40" fill="none" xmlns="http://www.w3.org/2000/svg">
<g clip-path="url(#clip0_7_86)">
<path d="M30.4401 19.9986C30.4401 37.0983 17.0175 39.9973 7.08657 39.9973H0.549304C0.250178 39.9973 0 39.7466 0 39.5477V24.8049C0 24.2763 0.426934 23.8485 0.954484 23.8485H6.67867C7.20622 23.8485 7.63315 24.2763 7.63315 24.8049V31.7145C7.63315 32.2403 8.05465 32.6653 8.57948 32.6735C13.6945 32.7416 22.7553 31.5919 22.7553 19.9986C22.7553 10.8494 16.7837 7.12486 8.58491 7.26654C8.06008 7.27471 7.63587 7.69975 7.63587 8.2256V15.1924C7.63587 15.721 7.20893 16.1488 6.68139 16.1488H0.954484C0.426934 16.1488 0 15.721 0 15.1924V0.449563C0 0.250666 0.250178 1.90735e-06 0.549304 1.90735e-06H7.08657C16.8163 1.90735e-06 30.4401 2.25053 30.4401 19.9986Z" fill="white"/>
<path d="M61.2148 40H54.3294C54.1799 40 53.9297 39.8992 53.8807 39.7003L53.8699 39.6703C51.2539 32.2703 40.7981 32.2894 38.212 39.7003C38.163 39.8992 37.9129 40 37.7143 40H30.878C30.4293 40 30.228 39.7003 30.3776 39.4006L45.4943 0.299709C45.6439 -0.100808 46.3428 -0.100808 46.4923 0.299709L61.6634 39.3979C61.813 39.6976 61.5628 39.9973 61.2148 39.9973V40Z" fill="#6330FF"/>
<path d="M90.8908 40H83.7553C83.6057 40 83.3066 39.8501 83.2549 39.7003L76.6687 25.3743C76.2418 24.4452 75.3145 23.8485 74.292 23.8485C72.848 23.8485 71.676 25.0228 71.676 26.4696V39.5477C71.676 39.7466 71.4258 39.9973 71.1267 39.9973H64.5894C64.3393 39.9973 64.0891 39.7466 64.0891 39.5477V19.1186C64.0891 17.6718 65.2611 16.4975 66.7051 16.4975H77.5117C79.1596 16.4975 83.4018 16.2986 83.4018 11.8984C83.4018 7.49813 78.7109 7.24746 77.5117 7.24746H66.7051C65.2611 7.24746 64.0891 6.07316 64.0891 4.62639V0.449563C64.0891 0.250666 64.3393 1.90735e-06 64.5894 1.90735e-06H77.5144C79.7606 1.90735e-06 90.9887 0.100812 90.9887 11.9011C90.9887 16.8817 88.7615 19.9278 85.7703 21.6688C84.6146 22.3418 84.1523 23.7831 84.7043 25.001C86.8934 29.8318 89.1885 34.5726 91.3367 39.3515C91.4863 39.7003 91.2878 40.0027 90.8881 40.0027L90.8908 40Z" fill="white"/>
<path d="M125.424 40H116.841C116.741 40 116.442 39.8992 116.393 39.8501L104.841 25.5432C104.795 25.486 104.705 25.4833 104.656 25.5378L94.2519 37.2727C94.1757 37.3571 94.037 37.3054 94.037 37.1909V0.449563C94.037 0.250666 94.2872 1.90735e-06 94.5863 1.90735e-06H101.173C101.472 1.90735e-06 101.673 0.250666 101.673 0.449563V18.3039L101.89 18.3802L116.689 0.149855C116.738 0.100812 117.037 1.90735e-06 117.138 1.90735e-06H125.271C125.821 1.90735e-06 126.071 0.40052 125.72 0.74927L109.915 20.2711V20.4264L125.869 39.248C126.169 39.6485 125.918 39.9973 125.421 39.9973L125.424 40Z" fill="white"/>
</g>
<defs>
<clipPath id="clip0_7_86">
<rect width="126" height="40" fill="white"/>
</clipPath>
</defs>
</svg>
