<svg width="40" height="40" viewBox="0 0 40 40" fill="none" xmlns="http://www.w3.org/2000/svg">
<g clip-path="url(#clip0_6_218)">
<path d="M1.97775 23.8867L16.1054 38.0058C18.7158 40.6146 21.2909 40.6322 23.8836 38.0587L38.0818 23.8515C40.6569 21.2779 40.6393 18.6868 38.0289 16.078L23.9189 1.97655C21.3085 -0.632223 18.7334 -0.667477 16.1407 1.92367L1.92483 16.1133C-0.667882 18.7045 -0.632607 21.2779 1.97775 23.8867ZM4.0237 21.9302C2.77144 20.661 2.73616 19.339 4.04134 18.0346L18.0456 4.03889C19.3508 2.7345 20.6735 2.75213 21.9435 4.02126L35.9829 18.0522C37.2352 19.3037 37.2705 20.6434 35.9653 21.9478L21.9611 35.9435C20.6559 37.2478 19.2978 37.2126 18.0632 35.9788L4.0237 21.9302ZM18.0808 28.364C18.6629 28.364 19.1567 28.0819 19.4918 27.5355L27.5698 14.8617C27.7639 14.5092 27.9931 14.1214 27.9931 13.7336C27.9931 12.9404 27.2876 12.4292 26.5468 12.4292C26.0883 12.4292 25.6473 12.7113 25.3299 13.2224L18.0103 24.9619L14.518 20.4671C14.1124 19.9031 13.7067 19.762 13.2305 19.762C12.4545 19.762 11.8724 20.379 11.8724 21.1546C11.8724 21.5424 12.0135 21.9125 12.278 22.2474L16.564 27.5355C17.0226 28.1171 17.4812 28.364 18.0808 28.364Z" fill="#CCFF00"/>
</g>
<defs>
<clipPath id="clip0_6_218">
<rect width="40" height="40" fill="white"/>
</clipPath>
</defs>
</svg>
