<svg width="40" height="40" viewBox="0 0 40 40" fill="none" xmlns="http://www.w3.org/2000/svg">
<g clip-path="url(#clip0_6_210)">
<path d="M23.9045 40C25.2792 40 26.253 38.8783 26.9594 37.1416L39.4654 6.18723C39.8091 5.35502 40 4.61328 40 3.99817C40 2.82224 39.2362 2.09857 37.9952 2.09857C37.346 2.09857 36.5632 2.27949 35.6849 2.60513L2.84487 14.5273C1.24105 15.1063 0 16.0289 0 17.3496C0 19.014 1.33652 19.5748 3.16945 20.0995L16.9547 23.9348L20.9642 36.834C21.5369 38.6612 22.1288 40 23.9045 40ZM17.8139 21.185L4.63961 17.3677C4.33412 17.2772 4.23866 17.2048 4.23866 17.0782C4.23866 16.9516 4.31503 16.8611 4.60143 16.7525L30.4153 7.4898C31.9427 6.94706 33.4129 6.22341 34.8258 5.6083C33.5656 6.58524 32 7.74308 30.9499 8.7381L17.8139 21.185ZM24.21 36.0199C24.0573 36.0199 23.9808 35.8932 23.8854 35.6038L19.8568 23.1207L32.9928 10.6738C34.0239 9.69699 35.3031 8.17727 36.315 6.94706C35.6659 8.32201 34.883 9.71505 34.3103 11.1804L24.5346 35.64C24.4201 35.9113 24.3436 36.0199 24.21 36.0199Z" fill="#CCFF00"/>
</g>
<defs>
<clipPath id="clip0_6_210">
<rect width="40" height="40" fill="white"/>
</clipPath>
</defs>
</svg>
