<svg width="40" height="40" viewBox="0 0 40 40" fill="none" xmlns="http://www.w3.org/2000/svg">
<g clip-path="url(#clip0_7_226)">
<path d="M7.50925 32.0123C12.8838 37.1195 19.8687 38.6499 23.3031 38.9633C24.312 39.0739 24.8746 38.4839 24.9522 37.8755C25.0298 37.2302 24.603 36.5295 23.6329 36.4005C20.5284 35.9948 14.1256 34.6673 9.44952 30.1869C1.84368 22.9408 0.407883 11.9887 6.61674 6.08865C11.6614 1.31324 20.0627 1.92169 26.2522 5.093L28.2701 3.23078C20.7418 -1.06524 10.6137 -1.41555 4.67647 4.24486C-2.3861 10.9747 -1.45477 23.4939 7.50925 32.0123ZM14.5718 26.4993C20.9165 32.5285 31.1223 34.907 36.8266 29.5047C41.4833 25.0612 40.8819 17.1698 35.8953 10.3847L33.9163 12.2653C37.8744 17.8335 38.6505 24.084 34.8864 27.6609C30.3073 32.0123 22.7404 29.9473 17.5404 25.2824L14.5718 26.4993ZM17.1136 23.7521L34.5372 7.21335L31.6462 4.48456L14.242 21.0049L12.651 24.5265C12.4763 24.9137 12.8838 25.3193 13.3107 25.1718L17.1136 23.7521ZM35.9535 5.88583L37.5057 4.4108C38.243 3.71017 38.2819 2.67765 37.5252 2.01388L37.0207 1.57137C36.361 0.981363 35.3133 0.981363 34.6148 1.64513L33.082 3.13859L35.9535 5.88583Z" fill="#CCFF00"/>
</g>
<defs>
<clipPath id="clip0_7_226">
<rect width="40" height="40" fill="white"/>
</clipPath>
</defs>
</svg>
