<svg width="40" height="40" viewBox="0 0 40 40" fill="none" xmlns="http://www.w3.org/2000/svg">
<g clip-path="url(#clip0_19_102)">
<path d="M1.57333 36.1476C2.53099 36.1476 3.14664 35.5055 3.14664 34.4816V22.9935H8.56777C8.67037 22.9935 8.80719 22.9935 8.90981 22.9935L15.5622 35.1063C15.9897 35.8699 16.4002 36.1649 17.1355 36.1649C18.059 36.1649 18.7259 35.5229 18.7259 34.6725C18.7259 34.3081 18.6405 33.9784 18.401 33.5272L12.1761 22.4903C16.1779 21.3449 18.572 18.0825 18.572 13.7267C18.572 8.20828 14.7755 4.68551 8.87557 4.68551H1.62463C0.615648 4.68551 0 5.34494 0 6.40351V34.4816C0 35.5055 0.615648 36.1476 1.57333 36.1476ZM3.14664 20.1476V7.54884H8.46516C12.7405 7.54884 15.3057 9.85692 15.3057 13.8308C15.3057 17.8569 12.8431 20.1476 8.60197 20.1476H3.14664ZM30.5088 35.0196C35.6221 35.0196 40 32.1042 40 26.8113C40 22.7332 37.6058 20.3038 32.2189 18.8981L29.363 18.1346C26.0624 17.3016 24.5233 15.7918 24.5233 13.4664C24.5233 10.9501 26.7293 8.78095 30.4916 8.78095C33.5528 8.78095 35.6734 10.3254 36.4942 13.2235C36.8192 14.1953 37.298 14.5944 38.0847 14.5944C38.991 14.5944 39.5724 13.9697 39.5724 12.9285C39.5724 12.6855 39.5382 12.4078 39.4698 12.0782C38.5463 8.24299 34.9551 5.70937 30.4916 5.70937C25.1731 5.70937 21.3938 8.95447 21.3938 13.6573C21.3938 17.5793 23.788 20.0261 28.8841 21.3449L31.7401 22.0912C35.4681 23.0803 36.8875 24.4339 36.8875 27.0369C36.8875 30.1432 34.5447 31.948 30.543 31.948C26.9346 31.948 24.6259 30.3168 23.9247 27.3319C23.634 26.4122 23.1039 25.9436 22.3172 25.9436C21.428 25.9436 20.8465 26.6204 20.8465 27.627C20.8465 27.9046 20.8808 28.1649 20.9662 28.4599C21.9239 32.6248 25.9598 35.0196 30.5088 35.0196ZM30.4233 40C31.1415 40 31.723 39.4274 31.723 38.6986V2.15189C31.723 1.42303 31.1415 0.833008 30.4233 0.833008C29.705 0.833008 29.1406 1.42303 29.1406 2.15189V38.6986C29.1406 39.4274 29.705 40 30.4233 40Z" fill="#CCFF00"/>
</g>
<defs>
<clipPath id="clip0_19_102">
<rect width="40" height="40" fill="white"/>
</clipPath>
</defs>
</svg>
