<svg width="52" height="40" viewBox="0 0 52 40" fill="none" xmlns="http://www.w3.org/2000/svg">
<g clip-path="url(#clip0_19_86)">
<path d="M35.814 36.2727C39.2728 36.2727 40.4817 34.4769 40.4817 32.4947C40.4817 28.8522 37.3587 26.87 31.1127 26.87C29.7023 26.87 28.8964 26.9547 28.2751 27.0394L27.0494 24.0576C24.514 17.9076 20.4675 15.8069 16.3371 15.8069C15.6655 15.8069 14.8931 15.8238 14.2047 15.9763C13.382 16.1626 13.063 16.6031 13.063 17.1623C13.063 17.806 13.5331 18.2295 14.2215 18.2126C14.9435 18.1787 15.3969 18.094 16.2196 18.094C20.031 18.094 22.7342 20.1779 25.1688 25.7349L26.7807 29.5129C28.0568 29.2418 29.2658 29.0386 31.1798 29.0386C34.5883 29.0386 37.9967 29.9534 37.9967 32.2914C37.9967 33.1893 37.2076 33.7992 35.814 33.7992C34.1685 33.7992 32.9932 33.3757 31.5325 33.3757C29.4169 33.3757 28.1072 33.7145 27.167 33.7145C26.3945 33.7145 25.5551 33.5959 24.6988 32.9013L17.1934 26.5142C11.8205 26.7513 7.89151 25.3282 5.60801 22.0076C3.89538 22.2109 2.65289 21.5502 2.65289 20.127C2.65289 18.8395 3.77785 17.9415 5.6248 18.0432C7.35421 12.3168 11.132 9.65691 16.3539 9.65691C21.8275 9.65691 27.4691 14.1126 31.5828 16.4506C32.6909 17.1283 33.9167 17.3486 34.7562 17.3486C36.5864 17.3486 38.0471 16.1795 39.3567 13.8077L28.1743 6.8615C26.9822 6.13299 25.3032 4.82846 25.3032 4.37103C25.3032 3.37145 27.6203 2.626 29.3161 2.626C31.969 2.626 34.1853 4.25243 36.2337 6.72596L41.3884 12.9437C46.1233 12.7234 49.7165 16.3829 49.7165 21.0588C49.7165 24.0576 48.3228 24.9725 44.7969 24.9725C42.5974 24.9725 40.1795 24.0745 38.0807 22.7361C34.8905 23.5493 31.5492 25.108 28.8964 27.1411L30.7937 28.2592C33.3794 26.7513 36.0323 25.6332 37.6442 25.0402C39.659 26.3956 42.5637 27.2088 44.7129 27.1919C49.2464 27.158 52 25.7349 52 21.0419C52 15.2817 47.6513 10.9445 42.547 10.8937L38.9034 5.89581C36.0994 2.11775 33.1107 0 29.2825 0C26.3106 0 22.2641 1.66031 22.2641 4.01525C22.2641 5.98051 24.4805 7.38669 26.6464 8.75904C29.165 10.3515 32.5567 12.3338 35.7133 14.1805C35.2935 14.5701 34.9745 14.7395 34.5547 14.7395C34.0342 14.7395 33.3458 14.4854 32.4559 13.9602C25.6726 10.0974 21.6093 6.96315 16.3875 6.96315C10.1414 6.96315 5.64159 10.1991 3.5092 16.3998C1.42719 16.8403 0 18.2126 0 20.3304C0 22.9563 2.1156 24.3117 4.28156 24.4303C5.87666 27.0563 10.3261 29.3774 16.0517 28.903L23.3891 35.0191C24.3629 35.8323 25.4207 36.2727 27.0997 36.2727C28.5102 36.2727 29.6183 35.7984 31.6164 35.7984C33.4297 35.7984 34.3532 36.2727 35.814 36.2727ZM15.2961 38.1025C18.8389 38.1025 22.0123 37.1876 24.5309 34.3583L22.4488 32.9352C20.9377 34.8326 18.3855 35.7984 15.2121 35.7984C12.8614 35.7984 11.3503 34.9513 11.3503 33.5959C11.3503 32.9182 11.7869 32.3931 12.7608 32.3931C13.7178 32.3931 14.7756 32.6641 15.9342 32.6641C17.9154 32.6641 19.1243 32.4438 20.4172 31.1055L18.6038 29.496C17.7307 30.36 17.143 30.5294 16.3539 30.5294C15.2457 30.5125 14.1712 30.1567 12.8951 30.1567C10.5612 30.1567 8.93249 31.529 8.93249 33.5789C8.93249 36.4761 11.4678 38.1025 15.2961 38.1025ZM43.6719 19.9915C44.5114 19.9915 45.1998 19.2969 45.1998 18.4668C45.1998 17.6366 44.5114 16.9419 43.6719 16.9419C42.8492 16.9419 42.1608 17.6366 42.1608 18.4668C42.1608 19.2969 42.8492 19.9915 43.6719 19.9915Z" fill="#CCFF00"/>
</g>
<defs>
<clipPath id="clip0_19_86">
<rect width="52" height="40" fill="white"/>
</clipPath>
</defs>
</svg>
