<svg width="86" height="40" viewBox="0 0 86 40" fill="none" xmlns="http://www.w3.org/2000/svg">
<g clip-path="url(#clip0_19_56)">
<path d="M0 19.9832C0 32.1206 7.48829 39.9664 18.4733 39.9664C24.4442 39.9664 29.3923 37.3846 34.8354 32.0537L43.0166 24.0737L51.1646 32.0537C56.6406 37.3846 61.5887 39.9664 67.5267 39.9664C78.5117 39.9664 86 32.1206 86 19.9832C86 7.84576 78.5117 0 67.5267 0C61.5887 0 56.6406 2.58173 51.1646 7.91283L43.0166 15.8927L34.8354 7.91283C29.3923 2.58173 24.4442 0 18.4733 0C7.48829 0 0 7.84576 0 19.9832ZM5.97085 19.9832C5.97085 11.5004 11.084 6.06874 18.4733 6.06874C22.6958 6.06874 26.3905 8.14751 30.6459 12.2045L38.827 19.9832L30.6129 27.762C26.3575 31.7853 22.6958 33.8977 18.4733 33.8977C11.084 33.8977 5.97085 28.466 5.97085 19.9832ZM47.173 19.9832L55.3539 12.2045C59.6095 8.14751 63.3042 6.06874 67.5267 6.06874C74.9489 6.06874 80.0291 11.5004 80.0291 19.9832C80.0291 28.466 74.9489 33.8977 67.5267 33.8977C63.3042 33.8977 59.6425 31.7853 55.3871 27.762L47.173 19.9832Z" fill="#CCFF00"/>
</g>
<defs>
<clipPath id="clip0_19_56">
<rect width="86" height="40" fill="white"/>
</clipPath>
</defs>
</svg>
