<svg width="62" height="40" viewBox="0 0 62 40" fill="none" xmlns="http://www.w3.org/2000/svg">
<g clip-path="url(#clip0_19_151)">
<path d="M44.0311 40C45.1632 40 46.0785 39.1287 46.0785 37.9915V2.05684C46.0785 0.919511 45.1632 0.0241699 44.0311 0.0241699C42.8991 0.0241699 41.9596 0.919511 41.9596 2.05684V37.9915C41.9596 39.1287 42.8991 40 44.0311 40ZM59.9286 40C61.0847 40 62 39.1287 62 37.9915V2.05684C62 0.919511 61.0847 0.0241699 59.9286 0.0241699C58.7965 0.0241699 57.8812 0.919511 57.8812 2.05684V37.9915C57.8812 39.1287 58.7965 40 59.9286 40ZM3.46853 39.032C4.4561 39.032 5.25097 38.7174 6.23854 38.1366L30.7832 23.6176C32.4935 22.6013 33.216 21.3913 33.216 20.012C33.216 18.6328 32.4935 17.4228 30.7832 16.4065L6.23854 1.88745C5.25097 1.30669 4.4561 0.992105 3.46853 0.992105C1.56566 0.992105 0 2.44401 0 5.15423V34.8698C0 37.58 1.56566 39.032 3.46853 39.032ZM4.52837 34.5552C4.16706 34.5552 3.85393 34.3133 3.85393 33.8293V6.19476C3.85393 5.7108 4.16706 5.46881 4.52837 5.46881C4.67288 5.46881 4.86558 5.54141 5.10645 5.68659L28.0132 19.3345C28.3505 19.5281 28.5191 19.6733 28.5191 20.012C28.5191 20.3266 28.3264 20.496 28.0132 20.6896L5.10645 34.3374C4.86558 34.4826 4.67288 34.5552 4.52837 34.5552Z" fill="#CCFF00"/>
</g>
<defs>
<clipPath id="clip0_19_151">
<rect width="62" height="40" fill="white"/>
</clipPath>
</defs>
</svg>
