<svg width="40" height="40" viewBox="0 0 40 40" fill="none" xmlns="http://www.w3.org/2000/svg">
<g clip-path="url(#clip0_19_159)">
<path d="M2.09139 26.224C2.61783 26.0581 2.87197 25.5048 2.72675 24.8779C2.27292 23.0152 2.00062 21.042 2.09139 18.4601C2.10954 17.7777 1.74648 17.4089 1.20188 17.372C0.493906 17.3167 0.112689 17.7593 0.0582294 18.3311C-0.10515 20.4149 0.0582294 22.9045 0.766204 25.468C0.947735 26.0949 1.52864 26.4085 2.09139 26.224ZM1.29264 15.2328C1.81909 15.4357 2.49076 15.196 2.7449 14.4952C5.66757 6.1964 12.6565 2.06547 19.7545 2.06547C22.9857 2.06547 25.5272 2.72936 27.6874 3.9834C28.3046 4.35224 28.9945 4.35224 29.2667 3.74366C29.5571 3.0982 29.2304 2.69248 28.7766 2.39741C26.0173 0.645459 23.2217 0 19.7545 0C11.5492 0 4.10639 4.44444 0.766204 13.4808C0.421294 14.4029 0.766204 15.0484 1.29264 15.2328ZM39.0513 21.9272C39.6322 21.9272 40.0497 21.4476 39.9953 20.8022C39.1784 13.2964 36.7458 8.55694 32.5525 4.83172C32.026 4.35224 31.3907 4.49976 31.0821 4.8686C30.7372 5.25588 30.7008 5.86445 31.2454 6.36237C34.8216 9.75561 37.4175 14.1448 38.0347 20.8391C38.1073 21.4476 38.4704 21.9272 39.0513 21.9272ZM4.19715 31.5721C4.54207 32.0516 5.23189 32.1807 5.74018 31.7381C7.04721 30.6132 7.70073 28.8059 7.70073 26.9248C7.70073 24.3799 6.61153 23.0889 6.61153 19.9171C6.61153 12.6879 12.5295 6.67588 19.6456 6.67588C28.2319 6.67588 33.7687 13.8128 33.7869 24.343C33.7869 28.4555 33.1152 31.3693 32.4435 33.0475C32.2075 33.6192 32.4254 34.2277 32.8974 34.4859C33.4057 34.7072 34.1136 34.5228 34.3314 33.9143C35.0395 31.9595 35.82 28.7505 35.82 24.3245C35.82 12.5772 29.4482 4.61042 19.6456 4.61042C11.404 4.61042 4.57837 11.5629 4.57837 19.9171C4.57837 22.9415 5.70387 24.9884 5.72203 26.9064C5.72203 28.1604 5.2682 29.3592 4.415 30.1152C3.97932 30.4841 3.9067 31.148 4.19715 31.5721ZM8.48131 35.0023C9.82468 34.3015 11.6581 31.9041 12.1664 30.0046C12.3116 29.4883 12.0756 28.8612 11.5129 28.6768C11.0046 28.4924 10.4601 28.8059 10.2603 29.396C9.77022 31.0189 8.91699 32.236 7.57365 33.1581C6.92014 33.6192 6.82938 34.1908 7.02906 34.6151C7.24689 35.076 7.82779 35.3343 8.48131 35.0023ZM12.3661 25.0069C11.9123 23.7528 11.168 22.1669 11.168 20.0276C11.168 15.1221 14.9257 11.3048 19.7545 11.3048C21.606 11.3048 22.1869 11.5076 23.8026 12.3006C24.3654 12.5588 24.8737 12.3928 25.0733 11.9871C25.3456 11.4707 25.2004 10.8437 24.5832 10.4749C23.3851 9.75561 21.5516 9.22083 19.7545 9.22083C13.8002 9.22083 9.11667 13.9788 9.11667 20.0276C9.11667 22.3513 9.73388 24.2324 10.3692 25.7999C10.6234 26.4085 11.168 26.7035 11.8215 26.4269C12.3661 26.2056 12.5658 25.6155 12.3661 25.0069ZM26.6526 14.7717C28.4136 17.372 29.2849 20.9681 29.2849 25.3204C29.2849 29.9677 28.0142 34.3568 26.0355 36.8649C25.7087 37.3075 25.6723 37.9345 26.0717 38.3403C26.5075 38.746 27.2518 38.7275 27.6148 38.2296C29.8295 35.1867 31.2817 30.355 31.2817 25.2467C31.2817 19.6588 30.1018 16.3393 28.4498 13.6653C28.0686 13.0752 27.4333 12.8907 26.925 13.1673C26.3985 13.4624 26.2351 14.1448 26.6526 14.7717ZM12.2935 37.4366C15.2706 35.0023 16.9043 31.1296 16.8862 26.8327C16.8681 23.5869 15.7244 21.5768 15.7244 19.8064C15.7244 17.4827 17.3401 15.9336 19.7 15.9336C23.3306 15.9336 24.5105 20.1383 24.6195 25.1176C24.7829 30.8713 22.7316 35.74 20.0449 38.1373C19.6092 38.5062 19.5184 39.0779 19.8089 39.5389C20.1538 40.0368 20.8618 40.1291 21.3338 39.6864C24.1656 37.0677 26.5619 31.314 26.5256 24.97C26.5075 18.7736 24.7829 13.8681 19.7 13.8681C16.3234 13.8681 13.7276 16.1549 13.7276 19.6219C13.7276 21.7059 14.8168 24.2692 14.8349 26.8327C14.8531 30.4841 13.5097 33.7667 11.0227 35.8137C10.5326 36.2195 10.4601 36.8096 10.7686 37.2707C11.1498 37.8055 11.8034 37.8608 12.2935 37.4366ZM16.5413 38.9119C17.9754 37.8608 19.7545 35.4449 20.4442 33.0844C20.5714 32.6787 20.4806 31.9963 19.8997 31.7935C19.2824 31.5721 18.756 31.8856 18.5927 32.3651C17.6669 34.8363 16.5232 36.2932 15.3069 37.2521C14.8531 37.6211 14.726 38.2296 15.0346 38.7091C15.325 39.2255 16.033 39.2992 16.5413 38.9119ZM21.479 28.7875C21.9873 26.2979 21.7876 23.1075 20.8981 20.3412C20.6621 19.6588 20.1357 19.3637 19.5729 19.5481C19.0464 19.7326 18.7197 20.2305 18.9194 20.876C19.7545 23.55 19.8997 26.1872 19.4822 28.5108C19.3732 29.064 19.5911 29.5989 20.2265 29.6911C20.8074 29.8017 21.3519 29.4513 21.479 28.7875Z" fill="#CCFF00"/>
</g>
<defs>
<clipPath id="clip0_19_159">
<rect width="40" height="40" fill="white"/>
</clipPath>
</defs>
</svg>
