<svg width="224" height="56" viewBox="0 0 224 56" fill="none" xmlns="http://www.w3.org/2000/svg">
<g clip-path="url(#clip0_33_164)">
<path fill-rule="evenodd" clip-rule="evenodd" d="M107.476 19.4463C107.476 19.0311 107.492 18.6425 107.524 18.2883C107.557 17.934 107.646 17.5645 107.796 17.176C107.91 16.8674 108.076 16.5741 108.291 16.296C108.506 16.018 108.766 15.7704 109.07 15.5532C109.375 15.3361 109.716 15.1609 110.097 15.0314C110.474 14.9018 110.896 14.8333 111.355 14.8333C112.54 14.8333 113.388 15.1037 113.899 15.6447C114.41 16.1856 114.666 16.9969 114.666 18.0788V25.9144H116.147V18.0559C116.147 17.5607 116.119 17.0846 116.062 16.6313C116.005 16.1741 115.818 15.7323 115.506 15.298C115.043 14.6657 114.475 14.22 113.802 13.9648C113.128 13.7095 112.394 13.5838 111.602 13.5838C110.714 13.5838 109.951 13.7705 109.318 14.14C108.685 14.5133 108.072 14.9895 107.48 15.5761V9.22223H105.999V25.9144H107.48V19.4463H107.476Z" fill="white"/>
<path fill-rule="evenodd" clip-rule="evenodd" d="M127.886 24.5012C128.406 23.945 128.803 23.2822 129.083 22.5051C129.363 21.7319 129.501 20.8672 129.501 19.9072C129.501 19.0273 129.384 18.2007 129.144 17.4274C128.905 16.6541 128.54 15.9875 128.045 15.4237C127.55 14.8599 126.933 14.4105 126.194 14.079C125.452 13.7476 124.579 13.58 123.577 13.58C122.575 13.58 121.727 13.7476 120.984 14.079C120.241 14.4105 119.625 14.8638 119.13 15.4351C118.634 16.0065 118.265 16.6732 118.018 17.4388C117.77 18.2045 117.648 19.0273 117.648 19.9072C117.648 20.9586 117.803 21.8766 118.119 22.6651C118.432 23.4536 118.858 24.1126 119.389 24.6345C119.925 25.1602 120.55 25.5525 121.268 25.8192C121.986 26.082 122.753 26.2192 123.577 26.2344C124.466 26.2344 125.277 26.082 126.012 25.7811C126.746 25.4802 127.371 25.0497 127.89 24.4936L127.886 24.5012ZM125.565 24.5583C125.013 24.844 124.352 24.9888 123.577 24.9888C122.867 24.9888 122.242 24.8669 121.698 24.6193C121.154 24.3717 120.704 24.025 120.339 23.5755C119.978 23.126 119.702 22.5889 119.511 21.9642C119.32 21.3395 119.227 20.6538 119.227 19.911C119.227 19.2635 119.308 18.6311 119.474 18.0216C119.637 17.4122 119.892 16.8712 120.237 16.3989C120.582 15.9265 121.033 15.5494 121.585 15.2637C122.136 14.978 122.798 14.8371 123.573 14.8371C124.348 14.8371 125.03 14.9666 125.573 15.2294C126.117 15.4923 126.559 15.8504 126.908 16.3075C127.253 16.7646 127.509 17.3017 127.675 17.9188C127.838 18.5359 127.923 19.2025 127.923 19.9148C127.923 20.5624 127.838 21.1909 127.675 21.7928C127.509 22.3947 127.253 22.9356 126.908 23.4156C126.563 23.8955 126.113 24.2764 125.561 24.5621L125.565 24.5583Z" fill="white"/>
<path fill-rule="evenodd" clip-rule="evenodd" d="M140.421 22.7413C140.421 21.968 140.218 21.3662 139.817 20.9319C139.415 20.5015 138.908 20.1548 138.299 19.8996C137.69 19.6444 137.029 19.4463 136.323 19.3092C135.613 19.1682 134.955 19.012 134.347 18.833C133.738 18.654 133.231 18.4254 132.829 18.1359C132.427 17.8502 132.224 17.435 132.224 16.8941C132.224 16.277 132.472 15.778 132.967 15.397C133.462 15.0199 134.176 14.8295 135.113 14.8295C136.051 14.8295 136.83 15.0199 137.447 15.397C138.064 15.7742 138.437 16.4294 138.571 17.355H140.076C139.894 15.9951 139.374 15.0275 138.51 14.4447C137.646 13.8657 136.522 13.5762 135.138 13.5762C133.754 13.5762 132.598 13.8962 131.819 14.5362C131.035 15.1799 130.646 16.0027 130.646 17.0046C130.646 17.7931 130.849 18.4026 131.25 18.8368C131.652 19.2711 132.159 19.6025 132.768 19.8348C133.377 20.0672 134.034 20.2386 134.744 20.3567C135.45 20.471 136.112 20.6119 136.72 20.7719C137.329 20.9319 137.836 21.1605 138.238 21.4462C138.64 21.7319 138.843 22.1699 138.843 22.7565C138.843 23.0499 138.778 23.3279 138.644 23.5908C138.514 23.8536 138.319 24.0898 138.064 24.2993C137.808 24.5088 137.483 24.6726 137.09 24.7983C136.696 24.924 136.225 24.985 135.682 24.985C134.562 24.985 133.701 24.7716 133.101 24.3488C132.5 23.926 132.082 23.1946 131.855 22.1585H130.35C130.382 22.7299 130.516 23.2632 130.747 23.7584C130.979 24.2536 131.299 24.684 131.709 25.0573C132.123 25.4268 132.618 25.7163 133.202 25.9259C133.787 26.1354 134.456 26.2382 135.215 26.2382C135.974 26.2382 136.668 26.1658 137.301 26.0173C137.934 25.8687 138.481 25.6516 138.944 25.3545C139.403 25.0611 139.768 24.6955 140.032 24.2536C140.295 23.8117 140.429 23.3051 140.429 22.7337L140.421 22.7413Z" fill="white"/>
<path fill-rule="evenodd" clip-rule="evenodd" d="M148.322 26.242C149.292 26.242 150.136 26.0668 150.854 25.7202C151.568 25.3735 152.16 24.9088 152.631 24.3298C153.102 23.7508 153.451 23.0727 153.682 22.2994C153.913 21.5262 154.027 20.7224 154.027 19.8882C154.027 19.0082 153.922 18.1816 153.706 17.4083C153.491 16.6351 153.151 15.9684 152.68 15.4047C152.209 14.8409 151.613 14.3952 150.89 14.0714C150.164 13.7476 149.283 13.5838 148.249 13.5838C147.835 13.5838 147.417 13.6372 146.991 13.7476C146.561 13.8543 146.147 14.0105 145.741 14.2124C145.339 14.4143 144.966 14.6695 144.629 14.978C144.292 15.2866 144.016 15.637 143.801 16.0218H143.753V13.9114H142.271V30.6493H143.753V23.9946C144.231 24.7374 144.885 25.2973 145.717 25.6744C146.548 26.0516 147.417 26.242 148.322 26.242ZM144.901 23.4955C144.532 23.0384 144.248 22.5051 144.049 21.8957C143.85 21.2862 143.753 20.6386 143.753 19.9605C143.753 19.233 143.846 18.5587 144.037 17.934C144.227 17.3093 144.499 16.7684 144.864 16.3113C145.226 15.8542 145.68 15.4961 146.224 15.2332C146.768 14.9704 147.384 14.8409 148.074 14.8409C148.699 14.8409 149.275 14.9437 149.803 15.1533C150.33 15.3628 150.789 15.6675 151.187 16.0675C151.584 16.4675 151.893 16.9588 152.112 17.5417C152.335 18.1207 152.444 18.7911 152.444 19.5453C152.477 20.3034 152.412 21.0081 152.246 21.6671C152.079 22.3261 151.82 22.9013 151.454 23.3927C151.093 23.8879 150.627 24.2764 150.058 24.5621C149.49 24.8478 148.829 24.9926 148.07 24.9926C147.397 24.9926 146.792 24.8593 146.256 24.5888C145.721 24.3183 145.266 23.9565 144.897 23.4994L144.901 23.4955Z" fill="white"/>
<path d="M157.654 13.9076H156.173V25.9182H157.654V13.9076Z" fill="white"/>
<path d="M157.732 9.22223H156.1V11.2869H157.732V9.22223Z" fill="white"/>
<path fill-rule="evenodd" clip-rule="evenodd" d="M163.981 26.1239C164.277 26.0478 164.516 25.9944 164.695 25.9601V24.825C164.496 24.8707 164.297 24.9088 164.09 24.9393C163.883 24.9697 163.685 24.985 163.486 24.985C163.173 24.985 162.93 24.9545 162.755 24.8935C162.581 24.8326 162.455 24.7297 162.374 24.5926C162.293 24.4555 162.244 24.2764 162.228 24.0593C162.212 23.8422 162.203 23.587 162.203 23.2937V15.0618H164.598V13.9038H162.203V10.5669H160.722V13.9038H158.921V15.0618H160.722V23.8498C160.722 24.745 160.917 25.3659 161.303 25.7163C161.688 26.063 162.252 26.2382 162.995 26.2382C163.356 26.2382 163.685 26.2001 163.981 26.1239Z" fill="white"/>
<path fill-rule="evenodd" clip-rule="evenodd" d="M176.734 26.0097C176.958 25.9487 177.124 25.903 177.242 25.8725V24.7831C176.617 25.0002 176.199 25.0345 175.992 24.8859C175.785 24.7412 175.683 24.3945 175.683 23.8536V17.3169C175.683 16.6198 175.566 16.0332 175.326 15.557C175.087 15.0771 174.758 14.6961 174.34 14.4104C173.918 14.1248 173.427 13.9152 172.859 13.7857C172.291 13.6562 171.686 13.5876 171.045 13.5876C170.355 13.5876 169.698 13.66 169.081 13.8086C168.465 13.9571 167.921 14.1895 167.45 14.5057C166.979 14.8218 166.598 15.2333 166.302 15.7361C166.006 16.2389 165.831 16.8446 165.782 17.5569H167.288C167.353 17.0312 167.491 16.5932 167.698 16.2465C167.905 15.8999 168.168 15.6218 168.489 15.4123C168.809 15.2028 169.183 15.058 169.613 14.9704C170.039 14.8866 170.51 14.8447 171.021 14.8447C172.173 14.8447 172.993 15.0733 173.48 15.5304C173.967 15.9875 174.21 16.5703 174.21 17.2788C174.21 17.496 174.182 17.7321 174.125 17.9873C174.068 18.2426 173.914 18.4254 173.667 18.5321C173.419 18.6387 173.103 18.7263 172.717 18.7873C172.332 18.8482 171.995 18.894 171.719 18.9244L169.67 19.1796C166.687 19.553 165.198 20.7567 165.198 22.7946C165.198 23.3813 165.312 23.8879 165.543 24.3145C165.774 24.7412 166.087 25.0992 166.48 25.3926C166.878 25.6859 167.332 25.903 167.852 26.0401C168.371 26.1773 168.911 26.2496 169.471 26.2496C170.408 26.2496 171.281 26.0782 172.088 25.7392C172.896 25.4002 173.61 24.905 174.235 24.2574C174.235 24.4745 174.251 24.6764 174.283 24.8707C174.316 25.065 174.381 25.2402 174.47 25.404C174.559 25.5678 174.681 25.7049 174.827 25.8192C174.977 25.9335 175.172 26.0097 175.42 26.0401C175.635 26.0858 175.854 26.1087 176.085 26.1087C176.296 26.1087 176.515 26.0782 176.738 26.0135L176.734 26.0097ZM174.202 21.4881C174.202 22.0899 174.068 22.6118 173.809 23.0537C173.545 23.4955 173.196 23.8574 172.758 24.1431C172.324 24.4288 171.824 24.6421 171.264 24.7793C170.704 24.9164 170.128 24.9888 169.536 24.9888C169.191 24.9888 168.85 24.9469 168.509 24.8631C168.172 24.7793 167.876 24.6459 167.621 24.4669C167.365 24.2879 167.158 24.0669 167.004 23.7927C166.845 23.5222 166.768 23.2022 166.768 22.8289C166.768 22.0099 167.085 21.4004 167.722 20.9967C168.355 20.5967 169.24 20.3567 170.376 20.2767C171.017 20.231 171.658 20.1701 172.303 20.0901C172.944 20.0139 173.581 19.8501 174.206 19.6025V21.4804L174.202 21.4881Z" fill="white"/>
<path d="M180.029 9.22223H178.548V25.9144H180.029V9.22223Z" fill="white"/>
<path fill-rule="evenodd" clip-rule="evenodd" d="M124.608 37.6736C124.149 37.1441 123.638 36.7746 123.078 36.5651C122.514 36.3556 121.946 36.249 121.365 36.249C120.497 36.249 119.71 36.4204 119.004 36.7594C118.338 37.0984 117.778 37.6317 117.328 38.3555C117.072 37.7536 116.691 37.2584 116.196 36.8737C115.575 36.4585 114.763 36.2528 113.761 36.2528C112.698 36.2528 111.838 36.4928 111.168 36.9765C110.791 37.247 110.389 37.7041 109.963 38.3479V36.5499H106.623V48.8652H110.109V41.441C110.109 40.7706 110.202 40.2639 110.385 39.9249C110.722 39.3268 111.383 39.0297 112.361 39.0297C113.205 39.0297 113.773 39.3268 114.061 39.9249C114.224 40.2563 114.301 40.7896 114.301 41.521V48.8691H117.762V41.521C117.762 40.9686 117.855 40.5001 118.038 40.1077C118.399 39.3688 119.056 38.9993 120.002 38.9993C120.822 38.9993 121.386 39.2849 121.69 39.8601C121.852 40.1611 121.929 40.5458 121.929 41.0144V48.8691H125.452L125.476 41.0905C125.476 40.2906 125.435 39.6849 125.354 39.2697C125.224 38.645 124.977 38.1155 124.608 37.6851V37.6736Z" fill="white"/>
<path fill-rule="evenodd" clip-rule="evenodd" d="M138.36 48.0082C138.246 47.8558 138.177 47.5701 138.153 47.1473C138.137 46.5873 138.128 46.115 138.128 45.7226V40.062C138.128 38.5764 137.568 37.5632 136.444 37.0299C135.32 36.4966 134.038 36.2261 132.594 36.2261C130.374 36.2261 128.808 36.7708 127.895 37.8565C127.322 38.5498 126.998 39.4373 126.925 40.5153H130.24C130.321 40.0392 130.484 39.6621 130.731 39.384C131.072 39.0069 131.656 38.8164 132.48 38.8164C133.214 38.8164 133.77 38.9116 134.148 39.1059C134.525 39.3002 134.716 39.6468 134.716 40.1535C134.716 40.5687 134.468 40.8734 133.973 41.0715C133.697 41.1858 133.239 41.2772 132.602 41.3534L131.425 41.4905C130.09 41.6505 129.075 41.9133 128.39 42.2828C127.136 42.9609 126.507 44.0618 126.507 45.5779C126.507 46.7473 126.896 47.6501 127.675 48.2901C128.455 48.9262 129.445 49.2462 130.642 49.2462C131.579 49.2462 132.419 49.0481 133.166 48.6481C133.791 48.3091 134.338 47.8977 134.817 47.4139C134.842 47.692 134.874 47.9434 134.915 48.1605C134.955 48.3777 135.028 48.6138 135.13 48.8614H138.867V48.3853C138.644 48.2862 138.473 48.1643 138.36 48.012V48.0082ZM134.708 44.058C134.683 45.136 134.355 45.8788 133.722 46.2864C133.089 46.694 132.399 46.8959 131.648 46.8959C131.173 46.8959 130.772 46.774 130.443 46.5264C130.11 46.2826 129.948 45.8826 129.948 45.3303C129.948 44.7132 130.22 44.256 130.759 43.9589C131.08 43.7837 131.608 43.6389 132.338 43.517L133.121 43.3799C133.515 43.3113 133.819 43.239 134.046 43.159C134.269 43.079 134.493 42.9761 134.712 42.8466V44.0465L134.708 44.058Z" fill="white"/>
<path d="M143.432 36.5194H139.946V48.8576H143.432V36.5194Z" fill="white"/>
<path d="M143.432 32.0702H139.946V35.049H143.432V32.0702Z" fill="white"/>
<path fill-rule="evenodd" clip-rule="evenodd" d="M152.635 41.4334C150.582 41.0105 149.385 40.7134 149.048 40.5382C148.707 40.3706 148.541 40.1039 148.541 39.7344C148.541 39.4411 148.699 39.1821 149.019 38.965C149.34 38.7478 149.872 38.6374 150.622 38.6374C151.531 38.6374 152.176 38.8545 152.558 39.2926C152.761 39.5326 152.883 39.864 152.931 40.2792H156.368C156.214 38.7707 155.622 37.7079 154.587 37.0908C153.552 36.4737 152.213 36.169 150.57 36.169C148.837 36.169 147.494 36.5766 146.54 37.3956C145.587 38.2145 145.108 39.1935 145.108 40.3325C145.108 41.3001 145.412 42.039 146.025 42.5495C146.638 43.0714 147.689 43.5056 149.182 43.8523C151.255 44.3132 152.456 44.637 152.777 44.8274C153.098 45.0179 153.26 45.2922 153.26 45.654C153.26 46.0159 153.061 46.313 152.659 46.5035C152.258 46.694 151.722 46.7854 151.044 46.7854C149.888 46.7854 149.097 46.5721 148.67 46.1416C148.427 45.9016 148.269 45.4941 148.2 44.9189H144.714C144.714 46.1873 145.209 47.2311 146.195 48.0501C147.181 48.8691 148.711 49.2767 150.781 49.2767C152.85 49.2767 154.311 48.8881 155.281 48.1148C156.251 47.3415 156.737 46.3435 156.737 45.1207C156.737 44.1913 156.401 43.418 155.723 42.8009C155.041 42.1914 154.015 41.7343 152.643 41.4296L152.635 41.4334Z" fill="white"/>
<path fill-rule="evenodd" clip-rule="evenodd" d="M172.397 38.3441C171.926 37.7803 171.329 37.3346 170.607 37.0108C169.881 36.687 169 36.5232 167.965 36.5232C167.552 36.5232 167.134 36.5766 166.708 36.687C166.277 36.7937 165.863 36.9499 165.458 37.1518C165.056 37.3536 164.683 37.6089 164.346 37.9174C164.009 38.226 163.733 38.5764 163.518 38.9612H163.469V36.8508H161.988V53.5887H163.469V46.9339C163.948 47.6768 164.602 48.2367 165.433 48.6138C166.265 48.991 167.134 49.1814 168.038 49.1814C169.008 49.1814 169.852 49.0062 170.571 48.6595C171.285 48.3129 171.877 47.8482 172.348 47.2692C172.819 46.6902 173.168 46.0121 173.399 45.2388C173.63 44.4655 173.744 43.6618 173.744 42.8276C173.744 41.9476 173.638 41.121 173.423 40.3477C173.208 39.5744 172.867 38.9078 172.397 38.3441ZM171.966 44.6027C171.8 45.2617 171.54 45.8369 171.175 46.3283C170.814 46.8235 170.347 47.212 169.779 47.4977C169.211 47.7834 168.55 47.9282 167.791 47.9282C167.117 47.9282 166.513 47.7948 165.977 47.5244C165.441 47.2539 164.987 46.892 164.618 46.4349C164.248 45.9778 163.964 45.4445 163.766 44.835C163.567 44.2256 163.469 43.578 163.469 42.8999C163.469 42.1724 163.563 41.4981 163.753 40.8734C163.944 40.2487 164.216 39.7078 164.581 39.2507C164.942 38.7936 165.397 38.4355 165.941 38.1726C166.484 37.9098 167.101 37.7803 167.791 37.7803C168.416 37.7803 168.992 37.8831 169.52 38.0926C170.047 38.3022 170.506 38.6069 170.903 39.0069C171.301 39.4068 171.609 39.8982 171.829 40.4811C172.052 41.0601 172.161 41.7305 172.161 42.4847C172.194 43.2428 172.129 43.9475 171.962 44.6065L171.966 44.6027Z" fill="white"/>
<path fill-rule="evenodd" clip-rule="evenodd" d="M185.179 38.2412C184.716 37.6089 184.148 37.1632 183.475 36.908C182.801 36.6527 182.067 36.527 181.275 36.527C180.387 36.527 179.624 36.7137 178.991 37.0832C178.358 37.4565 177.745 37.9327 177.152 38.5193V32.1654H175.671V48.8576H177.152V42.3895C177.152 41.9743 177.169 41.5857 177.201 41.2315C177.234 40.8772 177.323 40.5077 177.473 40.1192C177.587 39.8106 177.753 39.5173 177.968 39.2392C178.183 38.9612 178.443 38.7136 178.747 38.4964C179.052 38.2793 179.392 38.1041 179.774 37.9746C180.155 37.845 180.573 37.7765 181.032 37.7765C182.217 37.7765 183.065 38.0469 183.576 38.5879C184.087 39.1288 184.343 39.9401 184.343 41.022V48.8576H185.824V40.9991C185.824 40.5039 185.796 40.0278 185.739 39.5745C185.682 39.1173 185.495 38.6755 185.183 38.2412H185.179Z" fill="white"/>
<path fill-rule="evenodd" clip-rule="evenodd" d="M197.722 38.3669C197.227 37.8031 196.61 37.3536 195.871 37.0222C195.133 36.6908 194.256 36.5232 193.254 36.5232C192.252 36.5232 191.404 36.6908 190.661 37.0222C189.918 37.3536 189.302 37.807 188.807 38.3783C188.311 38.9497 187.942 39.6164 187.695 40.382C187.447 41.1477 187.325 41.9705 187.325 42.8504C187.325 43.9018 187.48 44.8198 187.796 45.6083C188.109 46.3968 188.535 47.0558 189.066 47.5777C189.602 48.1034 190.227 48.4957 190.945 48.7624C191.663 49.0252 192.43 49.1624 193.254 49.1776C194.143 49.1776 194.954 49.0252 195.689 48.7243C196.423 48.4234 197.048 47.9929 197.567 47.4368C198.087 46.8806 198.484 46.2178 198.764 45.4407C199.044 44.6674 199.182 43.8027 199.182 42.8428C199.182 41.9629 199.065 41.1362 198.825 40.363C198.586 39.5897 198.221 38.9231 197.726 38.3593L197.722 38.3669ZM197.352 44.7322C197.186 45.3341 196.93 45.875 196.585 46.3549C196.24 46.8349 195.79 47.2158 195.238 47.5015C194.686 47.7872 194.025 47.932 193.25 47.932C192.54 47.932 191.915 47.8101 191.371 47.5625C190.827 47.3149 190.377 46.9682 190.012 46.5187C189.651 46.0692 189.375 45.5321 189.184 44.9074C188.993 44.2827 188.9 43.597 188.9 42.8542C188.9 42.2067 188.981 41.5743 189.147 40.9648C189.31 40.3553 189.565 39.8144 189.91 39.3421C190.255 38.8697 190.706 38.4926 191.257 38.2069C191.809 37.9212 192.471 37.7803 193.246 37.7803C194.021 37.7803 194.703 37.9098 195.246 38.1726C195.79 38.4355 196.232 38.7936 196.581 39.2507C196.926 39.7078 197.182 40.2449 197.348 40.862C197.511 41.4791 197.596 42.1457 197.596 42.858C197.596 43.5056 197.511 44.1341 197.348 44.736L197.352 44.7322Z" fill="white"/>
<path fill-rule="evenodd" clip-rule="evenodd" d="M210.171 38.2412C209.708 37.6089 209.14 37.1632 208.467 36.908C207.793 36.6527 207.058 36.527 206.267 36.527C205.379 36.527 204.616 36.7137 203.983 37.0832C203.35 37.4565 202.737 37.9327 202.144 38.5193V36.8508H200.663V48.8614H202.144V42.3933C202.144 41.9781 202.161 41.5896 202.193 41.2353C202.226 40.881 202.315 40.5115 202.465 40.123C202.579 39.8144 202.745 39.5211 202.96 39.243C203.175 38.965 203.435 38.7174 203.739 38.5002C204.043 38.2831 204.384 38.1079 204.766 37.9784C205.147 37.8489 205.565 37.7803 206.024 37.7803C207.209 37.7803 208.057 38.0507 208.568 38.5917C209.079 39.1326 209.335 39.9439 209.335 41.0258V48.8614H210.816V41.0029C210.816 40.5077 210.788 40.0316 210.731 39.5783C210.674 39.1211 210.487 38.6793 210.175 38.245L210.171 38.2412Z" fill="white"/>
<path fill-rule="evenodd" clip-rule="evenodd" d="M220.863 47.212C220.173 47.692 219.342 47.932 218.368 47.932C217.658 47.932 217.033 47.8063 216.489 47.5472C215.945 47.292 215.499 46.953 215.142 46.5264C214.789 46.1035 214.521 45.6007 214.338 45.0217C214.156 44.4427 214.066 43.8256 214.066 43.178H223.992C224.008 41.0144 223.513 39.3649 222.511 38.2298C221.504 37.0946 220.125 36.527 218.36 36.527C217.438 36.527 216.615 36.6946 215.888 37.0261C215.162 37.3575 214.549 37.8146 214.05 38.3936C213.547 38.9726 213.162 39.6506 212.89 40.4201C212.618 41.1934 212.484 42.02 212.484 42.8999C212.484 43.7799 212.597 44.6027 212.829 45.3683C213.06 46.134 213.413 46.7968 213.892 47.3644C214.371 47.9282 214.979 48.3739 215.718 48.6976C216.461 49.0214 217.341 49.1852 218.36 49.1852C219.167 49.1852 219.873 49.0862 220.486 48.8843C221.095 48.6824 221.622 48.4005 222.064 48.0386C222.511 47.6768 222.88 47.2501 223.176 46.7625C223.472 46.2749 223.712 45.7455 223.894 45.1741H222.239C222.008 46.054 221.549 46.7359 220.855 47.2158L220.863 47.212ZM214.493 40.3973C214.704 39.8868 214.992 39.4373 215.345 39.0526C215.698 38.6678 216.128 38.3555 216.627 38.1269C217.13 37.8946 217.71 37.7803 218.368 37.7803C219.025 37.7803 219.609 37.8908 220.121 38.1155C220.632 38.3402 221.054 38.6412 221.395 39.0183C221.732 39.3992 221.987 39.8449 222.158 40.363C222.332 40.881 222.417 41.4334 222.417 42.02H214.07C214.135 41.4486 214.277 40.9077 214.493 40.3973Z" fill="white"/>
<path fill-rule="evenodd" clip-rule="evenodd" d="M66.8282 27.9219H61.971L62.3443 25.7163C62.462 24.9469 62.7258 23.766 62.7258 23.0689C62.7258 22.6461 62.462 22.2423 62.2348 22.0252C62.0116 21.8157 61.5652 21.5642 61.127 21.5642H57.5561C56.8906 21.5642 56.0588 22.0861 55.6976 22.6308C55.2634 23.2822 55.2513 24.0593 55.1011 24.8821L54.5898 27.9181H49.7204C48.7628 27.9181 47.7605 28.7676 47.513 29.7351L47.2289 31.4341C47.16 31.8188 46.9692 32.8244 46.9692 33.1558C46.9692 34.131 47.7402 34.8129 48.568 34.8129H53.4293L53.056 37.0261C52.9829 37.4451 52.9058 37.8679 52.845 38.2526C52.78 38.6678 52.6705 39.0831 52.6705 39.5135C52.6705 40.4963 53.4536 41.1705 54.2693 41.1705H57.8401C58.5219 41.1705 59.3415 40.6487 59.6986 40.1039C60.1328 39.4411 60.145 38.6907 60.2951 37.8527C60.4412 37.0413 60.563 36.2223 60.705 35.4262L60.8064 34.8167H65.6717C66.1911 34.8167 66.8201 34.4738 67.1001 34.2301C67.8711 33.5558 67.8751 33.0149 68.0253 32.1692C68.1389 31.5217 68.423 30.0056 68.423 29.4228C68.423 28.6533 67.6357 27.9219 66.8242 27.9219H66.8282Z" fill="white"/>
<path fill-rule="evenodd" clip-rule="evenodd" d="M19.3599 31.6969C19.3599 31.1065 19.23 30.6303 18.6538 30.276C18.2075 30.0018 17.6434 30.078 16.9374 30.078C15.6591 30.078 14.4377 30.0399 13.123 30.0399H1.31068C0.714177 30.0399 0 30.7065 0 31.3883C0 31.7616 0.0121735 32.0245 0.235354 32.3597C0.344915 32.5273 0.551864 32.7178 0.72635 32.8206C1.1646 33.0797 9.56023 33.0035 10.2501 33.0035C11.5526 33.0035 12.8065 33.0416 14.1496 33.0416H18.0451C18.6416 33.0416 19.3599 32.3749 19.3599 31.6931V31.6969Z" fill="white"/>
<path fill-rule="evenodd" clip-rule="evenodd" d="M17.3432 35.5176C16.8969 35.2433 16.3328 35.3195 15.6268 35.3195C14.3485 35.3195 13.1271 35.2814 11.8124 35.2814H7.75053C7.15403 35.2814 6.43579 35.948 6.43579 36.6299C6.43579 37.0032 6.44796 37.266 6.67115 37.6013C6.78071 37.7689 6.98766 37.9593 7.16214 38.0622C7.60039 38.3212 8.24558 38.245 8.93541 38.245C10.238 38.245 11.4918 38.2831 12.8309 38.2831H16.7305C17.327 38.2831 18.0412 37.6165 18.0412 36.9346C18.0412 36.3442 17.9113 35.868 17.3392 35.5138L17.3432 35.5176Z" fill="white"/>
<path fill-rule="evenodd" clip-rule="evenodd" d="M9.54398 27.3543C9.98222 27.6134 10.6274 27.5372 11.3172 27.5372C12.6198 27.5372 13.8737 27.5753 15.2128 27.5753H19.1123C19.7088 27.5753 20.4271 26.9086 20.4271 26.2268C20.4271 25.6364 20.2972 25.1602 19.7251 24.8059C19.2787 24.5317 18.7147 24.6079 18.0086 24.6079C16.7304 24.6079 15.509 24.5698 14.1942 24.5698H10.1324C9.53586 24.5698 8.81763 25.2364 8.81763 25.9182C8.81763 26.2915 8.8298 26.5544 9.05298 26.8896C9.16254 27.0534 9.36949 27.2477 9.54398 27.3505V27.3543Z" fill="white"/>
<path fill-rule="evenodd" clip-rule="evenodd" d="M26.7289 30.1808C26.2379 30.417 25.759 30.9541 25.759 31.5407C25.759 32.9882 27.3416 33.1558 28.2505 32.3026C28.7943 31.7921 28.9769 30.8931 28.4169 30.356C27.9421 29.9065 27.301 29.9065 26.7289 30.1808Z" fill="white"/>
<path fill-rule="evenodd" clip-rule="evenodd" d="M95.8903 14.5857C95.7402 14.4447 95.5129 14.2847 95.3466 14.1743C94.7988 13.8086 93.8736 13.481 93.131 13.481H80.3245C80.2515 13.2943 80.1744 13.1153 80.0851 12.9401C80.0445 12.8601 80.0161 12.7839 79.9715 12.7001C79.4927 11.7668 78.6243 10.7993 77.6869 10.2622C75.9786 9.27937 73.7955 9.37079 72.2779 10.544C71.1985 11.3783 70.6547 12.1058 70.0988 13.4315C70.0907 13.4467 70.0866 13.4658 70.0785 13.481H28.3844C27.6459 13.481 26.745 13.7667 26.2378 14.0067C25.6332 14.2924 25.1138 14.6466 24.6187 15.0695C24.4848 15.1875 24.4402 15.2752 24.3103 15.397C24.0182 15.6751 23.657 16.1856 23.4744 16.536C22.9266 17.5683 22.8495 18.4407 22.6588 19.6215C21.8797 24.3755 20.987 29.2475 20.2484 33.9977L18.9459 41.7495C18.8444 42.3171 18.4143 44.7398 18.4143 45.1398C18.4143 46.1378 18.5482 46.8387 19.1447 47.6501L19.5911 48.1567C19.6966 48.2558 19.7493 48.2824 19.8589 48.37C20.4797 48.8805 21.5185 49.2652 22.395 49.2652H25.7387C25.7265 49.4062 25.7184 49.5471 25.7184 49.6881C25.7184 51.3032 25.9578 52.2098 26.8505 53.4783C26.956 53.6306 27.0615 53.7678 27.1833 53.8973C27.2522 53.9697 27.3009 54.0001 27.3618 54.0763C27.4389 54.1678 27.4511 54.1982 27.5485 54.2858C28.6644 55.2877 30.2997 55.9695 31.9106 55.9695C33.5216 55.9695 34.5563 55.7676 35.8508 55.162C36.3823 54.9106 37.0438 54.5639 37.5023 54.2096L38.3626 53.5164L39.3446 52.4345C39.9654 51.5736 40.4564 50.8232 40.7648 49.7604C40.8094 49.6004 40.85 49.4328 40.8865 49.269H69.3927C69.3806 49.4214 69.3725 49.5738 69.3725 49.73C69.3725 51.3451 69.6119 52.2517 70.5046 53.5202C70.6101 53.6687 70.7156 53.8097 70.8373 53.9392C70.9063 54.0116 70.955 54.042 71.0159 54.1182C71.093 54.2097 71.1051 54.2401 71.2025 54.3277C72.3184 55.3296 73.9537 56.0114 75.5647 56.0114C77.1756 56.0114 78.2144 55.8095 79.5048 55.2039C80.0405 54.9525 80.6978 54.6058 81.1564 54.2516L82.0166 53.5583L82.9986 52.4802C83.6195 51.6194 84.1105 50.8689 84.4189 49.8061C84.4676 49.6309 84.5122 49.4557 84.5487 49.2728H87.0889C87.8355 49.2728 88.7242 48.991 89.2355 48.7472C89.8401 48.4615 90.3595 48.1072 90.8546 47.6844C91.2157 47.3758 91.7757 46.6406 91.9989 46.2178C92.5832 45.1131 92.5954 44.3589 92.8145 43.1323C93.4029 39.8602 93.9061 36.4928 94.4863 33.1863C94.6121 32.4626 94.7379 31.7083 94.8556 30.9503L95.9674 24.3298C96.0892 23.6403 97.059 18.1054 97.059 17.6102C97.059 16.5246 96.9332 15.9761 96.3205 15.1075L95.8822 14.5971L95.8903 14.5857ZM24.2292 34.1729C23.5069 33.4987 23.2959 32.7978 23.2959 31.7731C23.2959 31.2017 23.5475 30.5655 23.7625 30.1656C23.9938 29.7313 24.3347 29.3123 24.6836 28.9885C24.7891 28.8895 24.8825 28.8323 24.992 28.7371C26.3636 27.5867 28.8348 27.2477 30.2834 28.6C31.4277 29.6666 31.4521 31.3007 30.7501 32.6035C29.5084 34.9233 26.0998 35.9138 24.2292 34.1653V34.1729ZM37.5753 48.3777C37.5753 48.4424 37.5672 48.5072 37.5632 48.5719C37.5632 48.6024 37.5591 48.6367 37.5551 48.6672C37.5429 48.7548 37.5307 48.8424 37.5145 48.93C37.5145 48.9376 37.5145 48.9452 37.5145 48.9529C37.4982 49.0481 37.4739 49.1395 37.4496 49.2348C37.3643 49.5509 37.2426 49.8595 37.0884 50.149C36.5731 51.0975 35.7615 51.8098 34.7633 52.2784C33.9801 52.6479 33.4769 52.7278 32.5761 52.7278C31.2492 52.7278 29.9913 51.9089 29.5287 50.8918C29.2162 50.2061 29.2122 49.9471 29.2122 49.2233C29.2122 48.6596 29.4962 47.9053 29.7032 47.5282C29.7437 47.4558 29.7843 47.3834 29.8249 47.3187C29.8371 47.2996 29.8493 47.2806 29.8614 47.2616C29.8939 47.212 29.9223 47.1625 29.9548 47.1168C29.9669 47.0978 29.9791 47.0825 29.9913 47.0673C30.0359 47.0063 30.0765 46.9492 30.1211 46.8921C30.1252 46.8844 30.1333 46.8768 30.1414 46.8692C30.182 46.8197 30.2185 46.774 30.2591 46.7283C30.2713 46.713 30.2875 46.6978 30.2997 46.6825C30.3362 46.6406 30.3727 46.6025 30.4133 46.5645C30.4255 46.553 30.4376 46.5416 30.4498 46.5264C30.6121 46.3626 30.7866 46.2064 30.9854 46.0426C32.4706 44.8008 35.0717 44.4541 36.565 45.8674C36.7313 46.0273 36.8287 46.1188 36.9667 46.3016C37.1006 46.4807 37.2101 46.6673 37.2954 46.8654C37.3238 46.9263 37.3481 46.9873 37.3725 47.0482C37.3846 47.0825 37.3968 47.113 37.409 47.1473C37.4293 47.2082 37.4496 47.273 37.4658 47.3339C37.4739 47.3644 37.482 47.3949 37.4901 47.4254C37.5104 47.5168 37.5307 47.6082 37.5469 47.6996C37.5469 47.7072 37.5469 47.711 37.5469 47.7187C37.5591 47.8063 37.5713 47.8977 37.5753 47.9891C37.5753 48.0196 37.5753 48.0539 37.5794 48.0844C37.5794 48.1491 37.5794 48.2139 37.5794 48.2824C37.5794 48.3167 37.5794 48.351 37.5794 48.3853L37.5753 48.3777ZM81.2294 48.4996C81.2294 48.4996 81.2294 48.5148 81.2294 48.5224C81.2213 48.6291 81.2091 48.7357 81.1929 48.8424C81.1929 48.8691 81.1848 48.8919 81.1807 48.9186C81.1604 49.0329 81.1401 49.1433 81.1077 49.2538C81.0225 49.5776 80.9007 49.8899 80.7384 50.1833C80.2231 51.1318 79.4115 51.8441 78.4133 52.3126C77.6301 52.6821 77.127 52.7621 76.2261 52.7621C74.8992 52.7621 73.6413 51.9431 73.1787 50.9261C72.8662 50.2404 72.8622 49.9814 72.8622 49.2576C72.8622 48.6938 73.1462 47.9396 73.3532 47.5625C73.3978 47.4825 73.4425 47.4063 73.4871 47.3339C73.4993 47.3111 73.5155 47.292 73.5277 47.273C73.5601 47.2235 73.5926 47.1739 73.621 47.1282C73.6372 47.1054 73.6535 47.0825 73.6737 47.0559C73.7021 47.0139 73.7306 46.9759 73.763 46.9378C73.7833 46.9149 73.7995 46.8921 73.8198 46.8692C74.0552 46.5797 74.3189 46.3397 74.6395 46.0731C76.1247 44.8312 78.7257 44.4846 80.219 45.8978C80.2555 45.9321 80.2839 45.9626 80.3164 45.9893C80.3286 46.0007 80.3407 46.0121 80.3489 46.0235C80.3692 46.0464 80.3935 46.0654 80.4138 46.0883C80.4219 46.0997 80.4341 46.1112 80.4422 46.1188C80.4625 46.1416 80.4828 46.1645 80.5071 46.1911C80.5152 46.1988 80.5234 46.2102 80.5315 46.2178C80.5599 46.2521 80.5883 46.2902 80.6207 46.3321C80.6897 46.4273 80.7546 46.5264 80.8115 46.6254C80.8236 46.6483 80.8399 46.6749 80.852 46.6978C80.9048 46.7968 80.9575 46.8997 80.9981 47.0063V47.0139C81.0387 47.1168 81.0752 47.2235 81.1036 47.3263C81.1117 47.353 81.1199 47.3796 81.1239 47.4063C81.1523 47.513 81.1767 47.6234 81.1929 47.7339C81.1929 47.7377 81.1929 47.7453 81.1929 47.7529C81.2091 47.8596 81.2172 47.9663 81.2254 48.0767C81.2254 48.1034 81.2254 48.1301 81.2254 48.1567C81.2254 48.271 81.2254 48.3815 81.2254 48.4958L81.2294 48.4996ZM84.0131 23.7584L82.7227 31.4455C82.2601 34.0205 81.8908 36.5728 81.4323 39.1326L80.917 42.2371C79.4115 41.6581 77.6382 41.5896 76.0963 42.0162C75.4916 42.1838 75.0818 42.3286 74.5543 42.5723C73.621 43.0104 72.8013 43.5628 72.0466 44.2256L71.0686 45.3112C70.7278 45.7759 70.4072 46.2711 70.1353 46.7968H40.9839C40.8297 45.6845 40.3915 44.6217 39.588 43.7837L38.3788 42.759C36.7029 41.6848 34.3818 41.4372 32.4341 41.9781C31.9634 42.1076 31.6103 42.2219 31.233 42.3819C31.5211 40.6372 31.8011 38.885 32.1095 37.167L32.7587 33.3082C32.852 32.6644 32.9616 32.055 33.0752 31.4112C33.5378 28.8361 33.9071 26.2839 34.3656 23.7241L35.4896 17.0007C35.5343 16.7151 35.6357 16.3341 35.6357 16.0599H85.2791L84.638 19.9263C84.427 21.2252 84.2281 22.4747 84.0009 23.7546L84.0131 23.7584ZM87.1295 34.1196C87.0605 34.5043 87.028 34.6605 86.7765 34.9043C86.3463 35.3271 85.6443 35.4338 85.2182 35.0376C85.0843 34.9119 84.9991 34.7291 84.9991 34.5119C84.9991 34.1386 85.0803 33.8339 85.1412 33.4872L85.9487 28.6609C86.0176 28.2762 86.0501 28.12 86.3017 27.8762C86.6547 27.5296 86.8901 27.5029 87.3405 27.5029C87.5799 27.5029 88.079 27.7848 88.079 28.2343C88.079 28.7447 87.2512 33.4263 87.1295 34.1234V34.1196Z" fill="white"/>
<path fill-rule="evenodd" clip-rule="evenodd" d="M82.6375 10.7536L85.547 8.32324C85.8513 8.09469 86.7075 7.30617 87.0159 7.08523C87.6652 6.6205 87.7382 5.93483 87.1904 5.41677C86.7278 4.97871 86.0583 4.95204 85.5267 5.37487C85.4374 5.44725 85.4131 5.44725 85.3238 5.53105C85.2589 5.58819 85.2264 5.63009 85.1574 5.68342C85.0681 5.7558 85.0438 5.7558 84.9545 5.8396L82.4143 7.96136C82.11 8.18992 81.2538 8.97844 80.9454 9.19937C80.7141 9.36698 80.4138 9.62982 80.4138 10.0069C80.4138 10.4069 80.4828 10.5898 80.7506 10.845C81.3431 11.4164 82.0613 11.2754 82.6416 10.7497L82.6375 10.7536Z" fill="white"/>
<path fill-rule="evenodd" clip-rule="evenodd" d="M76.3276 7.33664C76.3763 7.12713 76.3925 1.72179 76.3925 0.963744C76.3925 -0.0761852 74.3636 -0.468539 74.0755 0.792327C74.0025 1.11231 74.0552 2.1789 74.0552 2.58268C74.0552 3.21883 74.0146 3.71784 74.0146 4.35399V7.16523C74.0146 8.20516 76.0436 8.59751 76.3317 7.33664H76.3276Z" fill="white"/>
<path fill-rule="evenodd" clip-rule="evenodd" d="M63.6998 7.67186C63.8378 7.80137 63.9392 7.85851 64.0691 7.98041L64.8036 8.59751C65.3108 8.99367 66.1183 9.74791 66.6336 10.1555C66.7148 10.2203 66.7351 10.2203 66.8162 10.2926C66.8893 10.3536 66.9299 10.4031 66.9988 10.4679C67.3397 10.765 67.855 11.2449 68.2608 11.2449C68.6666 11.2449 68.9304 11.2221 69.259 10.9097C69.5796 10.6088 69.6161 10.4069 69.6161 10.0146C69.6161 9.53078 69.0724 9.26032 68.7234 8.92511L64.9091 5.72532C64.4018 5.32916 64.3775 5.08156 63.5821 5.08156C63.0871 5.08156 62.4744 5.60724 62.4744 6.12149C62.4744 6.92524 63.0425 7.05476 63.6958 7.67186H63.6998Z" fill="white"/>
</g>
<defs>
<clipPath id="clip0_33_164">
<rect width="224" height="56" fill="white"/>
</clipPath>
</defs>
</svg>
